<svg width="108" height="78" viewBox="0 0 108 78" fill="none" xmlns="http://www.w3.org/2000/svg">
<path d="M106.809 26.7045L96.124 5.16416C95.3806 3.68167 94.1169 2.56323 92.6018 2.047C91.0868 1.53077 89.4402 1.65752 88.0126 2.40027L77.7141 7.82057H70.2026L55.6959 0.910607C54.3729 0.281081 52.8798 0.169968 51.4859 0.597309L30.0139 7.18757L19.9873 1.91042C18.5598 1.16758 16.9132 1.04068 15.3981 1.55673C13.883 2.07279 12.6191 3.19103 11.8755 4.6734L1.19069 26.2147C0.816828 26.9685 0.589336 27.7931 0.521492 28.6405C0.453648 29.4878 0.546811 30.3409 0.795543 31.15C1.04428 31.959 1.4436 32.7078 1.9702 33.3526C2.4968 33.9974 3.14013 34.5254 3.86264 34.9056L14.368 40.4353L37.9098 59.8145C38.5803 60.368 39.3544 60.7661 40.1812 60.9827L65.3614 67.6095C65.8396 67.735 66.3306 67.7983 66.8234 67.798C68.4401 67.7981 69.9913 67.1248 71.138 65.925L87.125 49.0951C87.138 49.0814 87.1493 49.0672 87.1615 49.0535C87.1782 49.0349 87.1947 49.016 87.211 48.9968C87.2284 48.9771 87.2462 48.9584 87.2631 48.9373L93.8709 40.7998L104.138 35.3955C104.86 35.0152 105.503 34.4872 106.03 33.8424C106.557 33.1975 106.956 32.4488 107.205 31.6397C107.453 30.8307 107.546 29.9776 107.478 29.1302C107.411 28.2829 107.183 27.4583 106.809 26.7045H106.809ZM84.8653 43.4434L67.6979 30.2995C67.2471 29.9543 66.703 29.7704 66.1455 29.7748C65.5881 29.7792 65.0466 29.9715 64.6006 30.3237L59.0395 34.7145C57.0804 36.2488 54.7037 37.0775 52.2619 37.0775C49.8201 37.0775 47.4433 36.2488 45.4843 34.7145L43.129 32.8548C43.0296 32.7761 42.9473 32.6758 42.8878 32.5607C42.8284 32.4457 42.793 32.3185 42.7842 32.1878C42.7754 32.0572 42.7933 31.926 42.8368 31.8033C42.8802 31.6805 42.9482 31.569 43.036 31.4763L60.0383 13.577C60.2016 13.4061 60.4224 13.3098 60.6527 13.309H69.6265L69.6387 13.3099L69.6474 13.309H76.75L89.1066 38.2202L84.8653 43.4434ZM5.7556 29.4597C5.71981 29.3442 5.70637 29.2224 5.71607 29.1013C5.72577 28.9802 5.75842 28.8625 5.81208 28.7549L16.4968 7.2141C16.5711 7.06597 16.6824 6.942 16.8187 6.85559C16.955 6.76918 17.1111 6.7236 17.2702 6.7238C17.404 6.72355 17.5359 6.75628 17.6556 6.81939L26.1306 11.2801L14.6417 34.4437L6.19397 29.9967C6.09058 29.9426 5.99852 29.8673 5.92323 29.7751C5.84794 29.683 5.79094 29.5759 5.7556 29.4602V29.4597ZM67.4516 62.0438C67.3452 62.1552 67.2133 62.2359 67.0686 62.278C66.9239 62.3202 66.7714 62.3223 66.6257 62.2843L41.445 55.6575C41.327 55.6267 41.2166 55.57 41.1209 55.491L19.0819 37.3489L31.4211 12.4725L52.9453 5.86623C53.1446 5.80545 53.3579 5.82134 53.547 5.91105L58.463 8.25279C57.6712 8.57313 56.9522 9.06489 56.3524 9.69625L39.3496 27.5955C38.7334 28.2442 38.2568 29.0247 37.952 29.8843C37.6473 30.7438 37.5216 31.6622 37.5834 32.5773C37.6452 33.4924 37.8931 34.3829 38.3102 35.1884C38.7274 35.9939 39.3041 36.6956 40.0013 37.246L42.3561 39.1048C45.2193 41.3476 48.693 42.5589 52.2619 42.5589C55.8307 42.5589 59.3045 41.3476 62.1677 39.1048L66.1886 35.9306L81.2806 47.4852L67.4516 62.0438ZM102.244 29.95C102.209 30.0657 102.152 30.1728 102.076 30.265C102.001 30.3571 101.909 30.4324 101.805 30.4865L93.3578 34.9335L81.8688 11.7704L90.3439 7.30923C90.5479 7.20301 90.7832 7.18489 90.9996 7.25871C91.2161 7.33253 91.3966 7.49247 91.5026 7.7044L102.187 29.2448C102.241 29.3524 102.274 29.4702 102.283 29.5914C102.293 29.7125 102.28 29.8345 102.244 29.95ZM49.5773 75.2622C49.4945 75.612 49.347 75.9411 49.1432 76.2308C48.9395 76.5205 48.6835 76.765 48.3899 76.9505C48.0964 77.136 47.7709 77.2588 47.4323 77.3118C47.0936 77.3649 46.7483 77.3471 46.4162 77.2596L33.3214 73.8133C32.3919 73.567 31.5303 73.0943 30.8059 72.4334L21.0079 63.4676C20.7473 63.2318 20.5335 62.9442 20.3789 62.6212C20.2243 62.2982 20.1319 61.9462 20.107 61.5854C20.082 61.2247 20.1251 60.8623 20.2336 60.5191C20.3422 60.1759 20.5142 59.8588 20.7396 59.5858C20.965 59.3128 21.2395 59.0895 21.5472 58.9285C21.8549 58.7676 22.1898 58.6723 22.5326 58.6482C22.8754 58.624 23.2194 58.6714 23.5447 58.7877C23.8701 58.9039 24.1704 59.0867 24.4284 59.3256L34.2269 68.2915C34.3308 68.3864 34.4544 68.4543 34.5879 68.4895L47.6805 71.9344C48.3511 72.111 48.9277 72.5608 49.2835 73.1849C49.6392 73.8089 49.7449 74.5562 49.5773 75.2622Z" fill="white"/>
</svg>
