<svg width="87" height="76" viewBox="0 0 87 76" fill="none" xmlns="http://www.w3.org/2000/svg">
<path d="M56.9579 27.4511C58.2928 27.4515 59.581 27.9373 60.578 28.8165C61.575 29.6957 62.2113 30.9069 62.3662 32.2202L62.4043 32.846V56.411C62.4399 61.3304 60.527 66.0676 57.0762 69.6056C53.6254 73.1436 48.9118 75.2005 43.9472 75.3347C38.9826 75.4688 34.1628 73.6696 30.5224 70.3232C26.882 66.9769 24.7111 62.3501 24.4759 57.4361L24.4487 56.411V32.846C24.449 31.5238 24.9395 30.2478 25.8271 29.2602C26.7146 28.2726 27.9374 27.6423 29.2632 27.4889L29.895 27.4511H56.9579ZM56.9579 32.846H29.895V56.411C29.8871 59.8942 31.2487 63.2436 33.6912 65.7494C36.1337 68.2552 39.4651 69.7205 42.9796 69.8348C46.4941 69.9492 49.9155 68.7035 52.5187 66.3619C55.1219 64.0202 56.7024 60.7666 56.9253 57.2904L56.9579 56.411V32.846ZM20.4674 27.4511C19.6749 28.8056 19.1916 30.3156 19.0513 31.875L19.0023 32.846H5.4409V53.023C5.44032 54.6957 5.86278 56.3418 6.66968 57.8112C7.47659 59.2805 8.64225 60.5262 10.0602 61.4345C11.4782 62.3428 13.1032 62.8848 14.787 63.0109C16.4708 63.1371 18.1597 62.8433 19.6994 62.1566C20.1352 63.9315 20.7669 65.6309 21.5784 67.2278C19.2851 68.1819 16.7942 68.5773 14.3147 68.3808C11.8352 68.1842 9.43944 67.4016 7.32842 66.0984C5.21739 64.7952 3.45265 63.0096 2.18225 60.8912C0.911857 58.7729 0.172851 56.3837 0.0272324 53.924L0 53.0176V32.846C0.000175975 31.5246 0.489933 30.2493 1.37638 29.2618C2.26282 28.2743 3.4843 27.6435 4.80913 27.4889L5.44635 27.4511H20.4619H20.4674ZM66.391 27.4511H81.5536C82.8885 27.4515 84.1767 27.9373 85.1737 28.8165C86.1707 29.6957 86.807 30.9069 86.9619 32.2202L87 32.846V53.023C87.0002 55.5743 86.3608 58.0857 85.1392 60.3318C83.9176 62.5779 82.1521 64.4884 80.0011 65.8917C77.8501 67.295 75.381 68.1473 72.8154 68.3721C70.2498 68.5968 67.668 68.1869 65.3017 67.1793C66.1078 65.5716 66.7396 63.8722 67.1698 62.0919C68.6493 62.7756 70.2739 63.0943 71.9047 63.0205C73.5356 62.9468 75.1241 62.4829 76.5345 61.6685C77.9449 60.8541 79.1352 59.7135 80.0036 58.3441C80.872 56.9747 81.3926 55.4174 81.521 53.8053L81.5536 53.023V32.846H67.8506L67.818 32.0422C67.6991 30.4246 67.2112 28.8548 66.391 27.4511ZM43.4183 0.341675C46.6358 0.341675 49.7216 1.60777 51.9967 3.86142C54.2719 6.11508 55.5501 9.17169 55.5501 12.3588C55.5501 15.546 54.2719 18.6026 51.9967 20.8563C49.7216 23.1099 46.6358 24.376 43.4183 24.376C40.2008 24.376 37.115 23.1099 34.8399 20.8563C32.5647 18.6026 31.2866 15.546 31.2866 12.3588C31.2866 9.17169 32.5647 6.11508 34.8399 3.86142C37.115 1.60777 40.2008 0.341675 43.4183 0.341675ZM70.5793 3.72968C73.3432 3.72968 75.994 4.8173 77.9484 6.75327C79.9029 8.68924 81.0008 11.315 81.0008 14.0529C81.0008 16.7907 79.9029 19.4165 77.9484 21.3524C75.994 23.2884 73.3432 24.376 70.5793 24.376C67.8153 24.376 65.1645 23.2884 63.2101 21.3524C61.2557 19.4165 60.1577 16.7907 60.1577 14.0529C60.1577 11.315 61.2557 8.68924 63.2101 6.75327C65.1645 4.8173 67.8153 3.72968 70.5793 3.72968ZM16.3391 3.72968C19.103 3.72968 21.7538 4.8173 23.7082 6.75327C25.6627 8.68924 26.7606 11.315 26.7606 14.0529C26.7606 16.7907 25.6627 19.4165 23.7082 21.3524C21.7538 23.2884 19.103 24.376 16.3391 24.376C13.5751 24.376 10.9243 23.2884 8.96987 21.3524C7.01545 19.4165 5.91746 16.7907 5.91746 14.0529C5.91746 11.315 7.01545 8.68924 8.96987 6.75327C10.9243 4.8173 13.5751 3.72968 16.3391 3.72968ZM43.4183 5.73659C41.6452 5.73659 39.9448 6.43429 38.691 7.67621C37.4373 8.91812 36.7329 10.6025 36.7329 12.3588C36.7329 14.1152 37.4373 15.7996 38.691 17.0415C39.9448 18.2834 41.6452 18.9811 43.4183 18.9811C45.1914 18.9811 46.8918 18.2834 48.1456 17.0415C49.3993 15.7996 50.1037 14.1152 50.1037 12.3588C50.1037 10.6025 49.3993 8.91812 48.1456 7.67621C46.8918 6.43429 45.1914 5.73659 43.4183 5.73659ZM70.5793 9.1246C69.2597 9.1246 67.9943 9.64382 67.0612 10.568C66.1282 11.4923 65.604 12.7458 65.604 14.0529C65.604 15.3599 66.1282 16.6134 67.0612 17.5377C67.9943 18.4619 69.2597 18.9811 70.5793 18.9811C71.8988 18.9811 73.1642 18.4619 74.0973 17.5377C75.0303 16.6134 75.5545 15.3599 75.5545 14.0529C75.5545 12.7458 75.0303 11.4923 74.0973 10.568C73.1642 9.64382 71.8988 9.1246 70.5793 9.1246ZM16.3391 9.1246C15.0195 9.1246 13.7541 9.64382 12.821 10.568C11.888 11.4923 11.3638 12.7458 11.3638 14.0529C11.3638 15.3599 11.888 16.6134 12.821 17.5377C13.7541 18.4619 15.0195 18.9811 16.3391 18.9811C17.6586 18.9811 18.924 18.4619 19.8571 17.5377C20.7901 16.6134 21.3143 15.3599 21.3143 14.0529C21.3143 12.7458 20.7901 11.4923 19.8571 10.568C18.924 9.64382 17.6586 9.1246 16.3391 9.1246Z" fill="white"/>
</svg>
