<svg width="30" height="35" viewBox="0 0 30 35" fill="none" xmlns="http://www.w3.org/2000/svg">
<path d="M5.20001 22.0078H9.39999C10.5139 22.0078 11.5822 22.5091 12.3698 23.4015C13.1575 24.2938 13.6 25.504 13.6 26.766C13.6 28.0279 13.1575 29.2382 12.3698 30.1305C11.5822 31.0229 10.5139 31.5242 9.39999 31.5242H5.20001V22.0078Z" stroke="#688F49" stroke-width="2" stroke-linejoin="round"/>
<path d="M5.20001 20.4218V33.1102Z" fill="#C4C4C4"/>
<path d="M5.20001 20.4218V33.1102" stroke="#688F49" stroke-width="2" stroke-linecap="round" stroke-linejoin="round"/>
<path d="M1 23.5939H5.2H1Z" fill="#C4C4C4"/>
<path d="M1 23.5939H5.2" stroke="#688F49" stroke-width="2" stroke-linecap="round" stroke-linejoin="round"/>
<path d="M1 28.3522H5.2H1Z" fill="#C4C4C4"/>
<path d="M1 28.3522H5.2" stroke="#688F49" stroke-width="2" stroke-linecap="round" stroke-linejoin="round"/>
<path d="M13.6 26.766H19.2C19.5713 26.766 19.9274 26.5989 20.1899 26.3014C20.4525 26.004 20.6 25.6006 20.6 25.1799V16.4565" stroke="#688F49" stroke-width="2" stroke-linecap="round" stroke-linejoin="round"/>
<path d="M20.6 1.38892V6.94019V1.38892Z" fill="#C4C4C4"/>
<path d="M20.6 1.38892V6.94019" stroke="#688F49" stroke-width="2" stroke-linecap="round" stroke-linejoin="round"/>
<path d="M14.2153 4.46509L17.1847 7.82922L14.2153 4.46509Z" fill="#C4C4C4"/>
<path d="M14.2153 4.46509L17.1847 7.82922" stroke="#688F49" stroke-width="2" stroke-linecap="round" stroke-linejoin="round"/>
<path d="M14.2153 18.1385L17.1847 14.7745L14.2153 18.1385Z" fill="#C4C4C4"/>
<path d="M14.2153 18.1385L17.1847 14.7745" stroke="#688F49" stroke-width="2" stroke-linecap="round" stroke-linejoin="round"/>
<path d="M26.9847 4.46509L24.016 7.82837L26.9847 4.46509Z" fill="#C4C4C4"/>
<path d="M26.9847 4.46509L24.016 7.82837" stroke="#688F49" stroke-width="2" stroke-linecap="round" stroke-linejoin="round"/>
<path d="M26.9847 18.1385L24.016 14.7754L26.9847 18.1385Z" fill="#C4C4C4"/>
<path d="M26.9847 18.1385L24.016 14.7754" stroke="#688F49" stroke-width="2" stroke-linecap="round" stroke-linejoin="round"/>
<path d="M20.6 16.4565C22.9196 16.4565 24.8 14.3262 24.8 11.6984C24.8 9.07049 22.9196 6.94019 20.6 6.94019C18.2804 6.94019 16.4 9.07049 16.4 11.6984C16.4 14.3262 18.2804 16.4565 20.6 16.4565Z" stroke="#688F49" stroke-width="2"/>
<path d="M12.2 11.6982H16.4Z" fill="#C4C4C4"/>
<path d="M12.2 11.6982H16.4" stroke="#688F49" stroke-width="2" stroke-linecap="round" stroke-linejoin="round"/>
<path d="M24.8 11.6982H29H24.8Z" fill="#C4C4C4"/>
<path d="M24.8 11.6982H29" stroke="#688F49" stroke-width="2" stroke-linecap="round" stroke-linejoin="round"/>
</svg>
