<svg width="38" height="29" viewBox="0 0 38 29" fill="none" xmlns="http://www.w3.org/2000/svg">
<path d="M19 0.110415C17.2875 0.0849611 17.2875 2.68131 19 2.65585H22.8V5.87838L15.6991 11.8194L13.2316 5.20129H13.9333C15.6459 5.22674 15.6459 2.6304 13.9333 2.65585H8.86667C7.15413 2.6304 7.15413 5.22674 8.86667 5.20129H10.5184L12.7756 11.2467C11.5642 10.6275 10.2258 10.3006 8.86667 10.2922C3.98493 10.2922 0 14.2961 0 19.2012C0 24.1063 3.98493 28.1102 8.86667 28.1102C13.7484 28.1102 17.7333 24.1063 17.7333 19.2012C17.7333 17.4958 17.2267 15.915 16.3907 14.5583L23.5372 8.57654L24.7101 11.5292C22.0653 13.0769 20.2667 15.9201 20.2667 19.2012C20.2667 24.1063 24.2516 28.1102 29.1333 28.1102C34.0151 28.1102 38 24.1063 38 19.2012C38 14.2961 34.0151 10.2922 29.1333 10.2922C28.4164 10.2922 27.7299 10.4016 27.0611 10.5645L25.3333 6.22456V1.38313C25.3333 1.04559 25.1999 0.721867 24.9623 0.483186C24.7248 0.244505 24.4026 0.110415 24.0667 0.110415H19ZM8.86667 12.8376C10.3012 12.8412 11.6913 13.3379 12.806 14.2452L8.056 18.2212C6.76147 19.3081 8.38027 21.263 9.67733 20.1812L14.4273 16.2027C14.9036 17.0987 15.2 18.1117 15.2 19.2012C15.2 22.7317 12.3804 25.5648 8.86667 25.5648C5.35293 25.5648 2.53333 22.7317 2.53333 19.2012C2.53333 15.6707 5.35293 12.8376 8.86667 12.8376ZM29.1333 12.8376C32.6471 12.8376 35.4667 15.6707 35.4667 19.2012C35.4667 22.7317 32.6471 25.5648 29.1333 25.5648C25.6196 25.5648 22.8 22.7317 22.8 19.2012C22.8 16.9688 23.9324 15.0216 25.65 13.8863L27.9553 19.6746C28.5785 21.2605 30.9447 20.311 30.3113 18.7277L28.0111 12.9496C28.3733 12.8885 28.7483 12.8376 29.1333 12.8376Z" fill="#688F49"/>
</svg>
