<svg width="87" height="88" viewBox="0 0 87 88" fill="none" xmlns="http://www.w3.org/2000/svg">
<path d="M14.9547 0.341675L10.5798 4.94146L17.0893 11.7921L21.4579 7.19227L14.9516 0.341675H14.9547ZM72.0484 0.341675L65.539 7.19227L69.9107 11.7921L76.4171 4.94473L72.0453 0.341675H72.0484ZM43.5 2.38311C42.4746 2.3962 41.4369 2.45836 40.3929 2.59249C40.3618 2.59249 40.3307 2.58595 40.2996 2.59249C27.6971 4.11376 17.6672 14.8346 15.9241 28.0451C14.5321 38.6776 18.6957 48.3188 25.6339 54.5281C28.472 57.0785 30.3917 60.5781 31.0714 64.4409V84.0701H38.1557C39.237 86.0232 41.21 87.3417 43.5 87.3417C45.79 87.3417 47.763 86.0232 48.8443 84.0701H55.9286V70.984H56.2206V67.0974C56.2206 62.3013 58.5883 57.466 62.4349 53.707C67.5804 48.2828 71.4643 40.5783 71.4643 31.7288C71.4643 15.5674 58.8306 2.23262 43.5 2.38311ZM43.5 8.92619C55.5091 8.74953 65.25 19.1007 65.25 31.7288C65.25 38.5794 62.2361 44.6121 58.0632 49.0025L58.1626 49.1072C54.0157 53.1335 51.3343 58.558 50.5812 64.4442H36.9905C36.307 58.8368 34.0232 53.4093 29.7074 49.5162C24.2171 44.6088 20.9453 37.2152 22.039 28.8662C23.3968 18.5609 31.3386 10.2741 41.0702 9.13884C41.8737 9.02089 42.6828 8.95099 43.4938 8.92946L43.5 8.92619ZM0 31.7288V38.2719H9.32143V31.7288H0ZM77.6786 31.7288V38.2719H87V31.7288H77.6786ZM17.0893 58.2086L10.5829 65.056L14.9547 69.659L21.4548 62.8084L17.0893 58.2086ZM69.9107 58.2086L65.5421 62.8084L72.0453 69.659L76.4171 65.056L69.9107 58.2086ZM37.2857 70.9873H49.7143V77.5303H37.2857V70.9873Z" fill="white"/>
</svg>
