<svg width="33" height="32" viewBox="0 0 33 32" fill="none" xmlns="http://www.w3.org/2000/svg">
<g clip-path="url(#clip0)">
<path d="M15.2317 21.9252L14.9532 28.8292L14.9162 29.2425L7.115 28.6985C6.64582 28.6498 6.20693 28.4415 5.87024 28.1079C5.50297 27.7703 5.20901 27.3594 5.00696 26.9012L4.99772 26.8785C4.86436 26.5548 4.77467 26.2144 4.73108 25.8665L4.72844 25.8465C4.68801 25.4298 4.71476 25.0093 4.80764 24.6012L4.80236 24.6265C4.89564 24.1634 4.96824 23.8194 5.02016 23.5945C5.1548 23.1039 5.29076 22.7052 5.44784 22.3159L5.42012 22.3945C5.63044 21.8194 5.74792 21.4892 5.77256 21.4039C6.73968 21.5523 9.89184 21.7265 15.229 21.9265L15.2317 21.9252ZM8.04164 10.9319L11.3852 18.0425L8.65544 16.3172C7.93114 17.1466 7.25925 18.0212 6.64376 18.9359L6.58568 19.0279C6.12104 19.6985 5.67224 20.4679 5.28416 21.2705L5.23928 21.3732C4.94184 22.0337 4.69764 22.6248 4.50668 23.1465C4.35834 23.5152 4.24561 23.8974 4.17008 24.2879L4.16348 24.3292L4.08956 24.7225L0.561202 18.0252C0.354624 17.7145 0.238883 17.3513 0.227242 16.9772V16.9732C0.202853 16.6698 0.24152 16.3646 0.340762 16.0772L0.336802 16.0932L0.484642 15.7559C0.920242 14.9683 1.626 13.7945 2.60192 12.2345L0.00548172 10.6145L8.04164 10.9319ZM30.904 20.6319L27.4179 27.3665C27.279 27.7142 27.0462 28.0154 26.746 28.2359L26.7408 28.2399C26.5075 28.4256 26.236 28.5559 25.9461 28.6212L25.9329 28.6239L25.599 28.6985C24.7198 28.7857 23.3642 28.859 21.532 28.9185L21.6799 31.9999L17.4084 25.1145L21.3301 18.3225L21.4594 21.5679C23.2371 21.7645 25.029 21.794 26.812 21.6559L26.7144 21.6625C27.8209 21.5913 28.9135 21.3739 29.9642 21.0159L29.8744 21.0425L30.904 20.6319ZM16.3286 3.29588C15.7478 4.08344 14.107 6.80388 11.4063 11.4572L5.52308 7.94921L5.17064 7.72921L9.34976 1.05055C9.61376 0.653214 9.99656 0.355881 10.4467 0.207881L10.4612 0.203881C10.9409 0.027293 11.4543 -0.0361017 11.962 0.0185475L11.9475 0.0172141C12.2788 0.0465475 12.5851 0.125214 12.8689 0.245214L12.8491 0.237214C13.1487 0.359881 13.4022 0.493214 13.6424 0.645214L13.6213 0.633214C13.909 0.827881 14.1612 1.03188 14.3935 1.25455L14.3908 1.25188C14.6883 1.52744 14.9114 1.74299 15.0601 1.89855C15.2088 2.0541 15.4319 2.30077 15.7293 2.63855C16.0294 2.97633 16.2292 3.19544 16.3286 3.29588ZM28.4937 9.05455L32.4313 15.8652C32.6554 16.3105 32.7362 16.8153 32.6623 17.3092L32.6636 17.2959C32.5926 17.7957 32.4156 18.2741 32.1448 18.6985L32.1528 18.6852C31.9835 18.9435 31.7786 19.1761 31.5442 19.3759L31.539 19.3799C31.3245 19.5672 31.0964 19.7379 30.8565 19.8905L30.8328 19.9039C30.5767 20.0572 30.2784 20.1959 29.9668 20.3052L29.9312 20.3159C29.5537 20.4537 29.2633 20.5537 29.06 20.6159C28.8567 20.6781 28.5377 20.7657 28.103 20.8785L27.249 21.0985C26.8274 20.1981 25.1867 17.4714 22.3267 12.9185L28.14 9.25988L28.4937 9.05455ZM25.8379 4.81455L28.4752 3.25721L24.3898 10.2559L16.6058 9.88121L19.4108 8.26788C18.9953 7.15034 18.5062 6.06214 17.9469 5.01055L18.0182 5.15721C17.5976 4.33127 17.1162 3.53838 16.5781 2.78521L16.615 2.83988C16.1882 2.25766 15.7887 1.75721 15.4165 1.33855C15.1531 1.0276 14.8653 0.738656 14.5558 0.474547L14.5453 0.465214L14.2298 0.221214L21.7472 0.239881C22.122 0.199159 22.5004 0.269582 22.8362 0.442547L22.8256 0.437214C23.1121 0.567881 23.3536 0.749214 23.5516 0.971881L23.553 0.974548L23.7576 1.25588C24.2407 2.01499 24.9341 3.20121 25.8379 4.81455Z" fill="#688F49"/>
</g>
<defs>
<clipPath id="clip0">
<rect width="33" height="32" fill="white"/>
</clipPath>
</defs>
</svg>
