<svg width="80" height="80" viewBox="0 0 80 80" fill="none" xmlns="http://www.w3.org/2000/svg">
<path d="M56.6667 20.0001C60.3486 20.0001 63.3333 17.0153 63.3333 13.3334C63.3333 9.65152 60.3486 6.66675 56.6667 6.66675C52.9848 6.66675 50 9.65152 50 13.3334C50 17.0153 52.9848 20.0001 56.6667 20.0001Z" fill="white"/>
<path d="M52.59 36.5632C53.3552 37.7035 54.4528 38.5806 55.7337 39.0756C57.0147 39.5706 58.4169 39.6593 59.75 39.3299L70.8033 36.5666L69.1933 30.0999L58.14 32.8632L53.5433 25.9732C52.5612 24.5018 51.0371 23.4785 49.3033 23.1266L36.4833 20.5599C35.0491 20.2721 33.5601 20.4644 32.2461 21.1072C30.9321 21.7501 29.8663 22.8076 29.2133 24.1166L23.6867 35.1699L29.65 38.1532L35.1767 27.0966L41.7333 28.4099L24.78 56.6666H10V63.3332H24.78C27.1067 63.3332 29.2967 62.0932 30.4967 60.0966L36.89 49.4432L54.12 52.8899L60.1733 71.0532L66.4933 68.9432L60.4433 50.7832C60.07 49.6683 59.4093 48.6715 58.528 47.8932C57.6467 47.1148 56.5759 46.5825 55.4233 46.3499L45.2933 44.3266L51.2 34.4799L52.59 36.5632Z" fill="white"/>
</svg>
