<svg width="80" height="80" viewBox="0 0 80 80" fill="none" xmlns="http://www.w3.org/2000/svg">
<path d="M39.9955 22.8506C33.1797 22.7577 26.6255 27.1993 24.1169 33.5248C21.547 39.6107 22.9677 47.1017 27.589 51.8233C32.0822 56.6604 39.4856 58.443 45.6868 56.1759C52.1853 53.9621 56.9593 47.5341 57.1313 40.6607C57.4775 33.9832 53.4643 27.3806 47.422 24.5448C45.1162 23.4284 42.5569 22.8472 39.9955 22.8506ZM39.9955 25.9756C46.2252 25.8577 52.1284 30.4304 53.5786 36.4882C55.1684 42.3093 52.4898 48.9466 47.2754 51.9966C41.9511 55.3381 34.4445 54.4476 30.0725 49.9221C25.4586 45.4711 24.637 37.7702 28.1767 32.4324C30.6837 28.4501 35.288 25.9298 39.9955 25.9756ZM44.4259 29.9607L39.7423 38.4579C38.2957 38.6117 37.952 40.8063 39.2867 41.3916C40.1684 42.0036 40.8589 40.9857 41.6614 41.0208H48.8213V39.0677H41.6362L46.1364 30.9034L44.4259 29.9607ZM40.2874 4.01106L39.7889 4.01188H39.7758L39.7626 4.01212L39.2641 4.0197L39.2509 4.01993L39.2378 4.02032L38.7395 4.03458L38.7264 4.03497L38.7132 4.03552L38.2152 4.05649L38.2021 4.05708L38.1889 4.05778L37.6912 4.08548L37.678 4.08626L37.6649 4.08716L37.1676 4.12153L37.1545 4.12247L37.1413 4.12353L36.6446 4.16466L36.6315 4.16571L36.6184 4.16696L36.1222 4.21478L36.1091 4.21606L36.096 4.21747L35.6006 4.272L35.5875 4.27345L35.5743 4.27505L35.0798 4.33626L35.0667 4.33782L35.0536 4.3397L34.56 4.40751L34.5469 4.40935L34.5338 4.4113L34.0412 4.48587L34.0281 4.48782L34.015 4.48997L33.5236 4.57122L33.5104 4.57337L33.4973 4.57571L33.0072 4.6636L32.994 4.66599L32.9809 4.66853L32.4921 4.76306L32.479 4.76563L32.4659 4.76829L31.9785 4.86954L31.9653 4.87228L31.9523 4.87521L31.4664 4.98306L31.4533 4.98599L31.4402 4.98911L30.9561 5.1036L30.9429 5.10673L30.9298 5.11001L30.6686 5.17571L30.3252 5.29688L30.0105 5.47974L29.735 5.71778L29.5086 6.0029L29.339 6.32501L29.2321 6.67298L29.1917 7.03478L29.219 7.39786L29.3134 7.74942L29.4713 8.07747L29.6873 8.37052L29.954 8.61833L30.262 8.81235L30.6007 8.94587L30.9583 9.01415L31.3223 9.01497L31.6203 8.96419L31.8678 8.902L32.3247 8.79395L32.7845 8.69173L33.2523 8.59466L33.7102 8.5061L34.175 8.42278L34.6412 8.34571L35.1034 8.27579L35.5722 8.2113L36.0364 8.15388L36.5073 8.10204L36.9787 8.05657L37.4509 8.01759L37.924 7.98478L38.392 7.95876L38.8658 7.93884L39.3398 7.92528L39.8082 7.91817L40.2824 7.91735L40.7564 7.9229L41.2247 7.93481L41.6923 7.9529L42.1707 7.9779L42.6371 8.00864L43.1087 8.04618L43.5794 8.09005L44.0492 8.14044L44.5126 8.19642L44.9787 8.25923L45.4455 8.32864L45.9147 8.40517L46.378 8.48724L46.8336 8.57454L46.9517 8.59876L47.3136 8.63868L47.6765 8.61079L48.028 8.51595L48.3558 8.35755L48.6484 8.14103L48.8959 7.87399L49.0895 7.56563L49.2225 7.22673L49.2902 6.86907L49.2906 6.50501L49.2232 6.14724L49.0907 5.80817L48.8975 5.49966L48.6504 5.23224L48.358 5.01544L48.0304 4.85657L47.74 4.7729L47.6113 4.74642L47.5979 4.74368L47.5845 4.74106L47.0961 4.64755L47.0828 4.64501L47.0695 4.64267L46.5796 4.55583L46.5664 4.55349L46.5531 4.55134L46.062 4.47126L46.0487 4.46915L46.0354 4.4672L45.5432 4.39392L45.5299 4.39196L45.5165 4.39013L45.0232 4.32368L45.01 4.32185L44.9966 4.32024L44.5024 4.26048L44.4891 4.25892L44.4759 4.25751L43.9807 4.2045L43.9675 4.20306L43.9543 4.20181L43.4584 4.1556L43.4451 4.15438L43.4319 4.15329L42.9353 4.1138L42.9221 4.11271L42.9089 4.11188L42.4117 4.07907L42.3985 4.07821L42.3853 4.07755L41.8877 4.05146L41.8745 4.05075L41.8613 4.05032L41.3632 4.03099L41.3501 4.03048L41.3369 4.03017L40.8386 4.01755L40.8254 4.01716L40.8123 4.017L40.3139 4.01114L40.3007 4.01099L40.2874 4.01106ZM59.9708 10.2972L59.6149 10.3739L59.2794 10.5154L58.9761 10.7165L58.7153 10.9706L58.5062 11.2686L58.356 11.6002L58.27 11.954L58.2512 12.3175L58.3001 12.6783L58.4152 13.0237L58.5923 13.3417L58.8254 13.6214L59.0555 13.8174L59.1732 13.9026L59.1757 13.9045L59.3716 14.0491L59.374 14.0509L59.5577 14.1888L59.5609 14.1913L59.734 14.3235L59.7367 14.3256L59.9249 14.4717L60.1117 14.6193L60.1151 14.622L60.2928 14.7649L60.2977 14.7688L60.4716 14.9111L60.6549 15.0634L60.6593 15.0671L60.8324 15.2134L61.0041 15.3611L61.0078 15.3643L61.1871 15.5211L61.365 15.6794L61.3689 15.6828L61.5372 15.8352L61.7127 15.9967L61.7166 16.0002L61.882 16.155L62.0548 16.3195L62.2172 16.4767L62.2216 16.481L62.3962 16.653L62.3974 16.6543L62.5529 16.8099L62.5561 16.8133L62.7236 16.9839L62.8834 17.1495L62.8854 17.1515L63.0545 17.3299L63.0583 17.3339L63.2137 17.5007L63.3697 17.6709L63.3713 17.6726L63.5361 17.8556L63.6949 18.0351L63.6986 18.0392L63.8531 18.2171L63.8553 18.2196L64.0058 18.3958L64.1606 18.5802L64.3067 18.7572L64.3105 18.7619L64.4623 18.9493L64.6138 19.1395L64.7568 19.3223L64.7595 19.3258L64.911 19.5231L64.9143 19.5274L65.057 19.7167L65.06 19.7207L65.2043 19.9156L65.222 19.9396L65.2405 19.963L65.4545 20.2343L65.6637 20.5056L65.8659 20.7737L66.0637 21.0421L66.2635 21.3192L66.458 21.5955L66.6465 21.8692L66.8307 22.1427L66.8332 22.1466L67.0212 22.4326L67.2041 22.7174L67.3841 23.0043L67.558 23.2882L67.7352 23.5843L67.9031 23.872L68.0711 24.167L68.2361 24.4638L68.395 24.757L68.554 25.0574L68.7081 25.3566L68.8109 25.5614L69.0039 25.8702L69.2508 26.1377L69.5431 26.3547L69.8707 26.5137L70.2219 26.6092L70.5848 26.6379L70.9468 26.5986L71.2951 26.493L71.6179 26.3244L71.9037 26.0989L72.1427 25.8243L72.3266 25.5101L72.449 25.1673L72.5056 24.8076L72.4946 24.4438L72.4161 24.0883L72.3018 23.8084L72.1941 23.5941L72.1895 23.585L72.1848 23.5759L72.0208 23.2575L72.0161 23.2484L72.0113 23.2393L71.8439 22.9227L71.8391 22.9136L71.8342 22.9047L71.6635 22.5898L71.6586 22.5808L71.6536 22.5718L71.4795 22.2586L71.4746 22.2497L71.4695 22.2407L71.2921 21.9295L71.2871 21.9206L71.2819 21.9116L71.1012 21.6023L71.096 21.5934L71.0907 21.5845L70.9068 21.2771L70.9015 21.2682L70.8961 21.2594L70.709 20.954L70.7036 20.9451L70.6981 20.9363L70.5077 20.6328L70.5021 20.624L70.4966 20.6153L70.3029 20.3138L70.2973 20.305L70.2916 20.2964L70.0948 19.9969L70.0891 19.9882L70.0832 19.9795L69.8832 19.6823L69.8774 19.6736L69.8714 19.665L69.6682 19.3698L69.6622 19.3612L69.6562 19.3526L69.4498 19.0596L69.4438 19.051L69.4376 19.0425L69.228 18.7517L69.2219 18.7431L69.2157 18.7346L69.0029 18.4461L68.9966 18.4376L68.9903 18.4291L68.7745 18.1429L68.7681 18.1344L68.7616 18.126L68.5426 17.8422L68.5361 17.8337L68.5295 17.8254L68.326 17.5674L68.1891 17.3824L68.1839 17.3755L68.1789 17.3687L68.0227 17.1618L68.0177 17.155L68.0124 17.1482L67.8548 16.943L67.8496 16.9362L67.8445 16.9295L67.6853 16.7261L67.6801 16.7194L67.6748 16.7127L67.5142 16.511L67.5089 16.5043L67.5036 16.4978L67.3415 16.2978L67.3362 16.2911L67.3307 16.2846L67.1672 16.0864L67.1618 16.0798L67.1563 16.0733L66.9913 15.8768L66.9859 15.8703L66.9804 15.8638L66.8139 15.6691L66.8085 15.6627L66.8028 15.6563L66.635 15.4632L66.6295 15.4568L66.6239 15.4506L66.4546 15.2592L66.4489 15.2529L66.4433 15.2466L66.2726 15.057L66.267 15.0508L66.2612 15.0445L66.0891 14.8566L66.0835 14.8505L66.0778 14.8443L65.9043 14.6582L65.8986 14.6521L65.8928 14.6459L65.7179 14.4616L65.7121 14.4554L65.7063 14.4494L65.5301 14.2668L65.5243 14.2608L65.5184 14.2548L65.3409 14.0738L65.335 14.0679L65.3291 14.062L65.1502 13.8827L65.1443 13.8768L65.1384 13.8711L64.9581 13.6935L64.9522 13.6877L64.9462 13.6819L64.7647 13.5061L64.7587 13.5003L64.7527 13.4946L64.5698 13.3206L64.5639 13.3149L64.5579 13.3092L64.3737 13.1369L64.3677 13.1313L64.3615 13.1256L64.1761 12.955L64.1701 12.9495L64.164 12.944L63.9773 12.7751L63.9712 12.7696L63.9651 12.7641L63.7771 12.5969L63.771 12.5915L63.7648 12.5861L63.5757 12.4207L63.5695 12.4152L63.5634 12.41L63.373 12.2463L63.3668 12.2409L63.3606 12.2357L63.169 12.0737L63.1627 12.0684L63.1565 12.0633L62.9637 11.903L62.9575 11.8978L62.9512 11.8927L62.7572 11.7341L62.751 11.729L62.7446 11.7239L62.5495 11.5671L62.5432 11.562L62.5369 11.557L62.3406 11.402L62.3343 11.3969L62.3279 11.392L62.1305 11.2386L62.1241 11.2337L62.1177 11.2288L61.9191 11.0772L61.9128 11.0723L61.9064 11.0675L61.7067 10.9175L61.7003 10.9127L61.6938 10.908L61.493 10.7598L61.4866 10.755L61.4802 10.7504L61.3497 10.6556L61.0363 10.4702L60.6941 10.3462L60.3347 10.2878L59.9708 10.2972ZM18.28 11.2594L17.9256 11.3428L17.5929 11.4906L17.3415 11.6584L17.3251 11.6713L17.3189 11.6761L17.3128 11.6811L17.1182 11.8365L17.112 11.8415L17.1059 11.8465L16.9124 12.0036L16.9063 12.0086L16.9002 12.0136L16.7079 12.1725L16.7018 12.1775L16.6957 12.1826L16.5047 12.3431L16.4986 12.3482L16.4925 12.3534L16.3026 12.5154L16.2966 12.5206L16.2906 12.5258L16.102 12.6895L16.0959 12.6948L16.0899 12.7L15.9025 12.8654L15.8965 12.8707L15.8906 12.8761L15.7044 13.0431L15.6985 13.0484L15.6925 13.0538L15.5077 13.2224L15.5017 13.2279L15.4957 13.2333L15.3122 13.4036L15.3062 13.4091L15.3004 13.4146L15.1181 13.5865L15.1122 13.5921L15.1064 13.5977L14.9254 13.7712L14.9195 13.7769L14.9137 13.7825L14.734 13.9577L14.7282 13.9633L14.7225 13.9691L14.5441 14.1459L14.5383 14.1516L14.5325 14.1574L14.3555 14.3358L14.3498 14.3416L14.344 14.3475L14.1684 14.5275L14.1627 14.5334L14.157 14.5393L13.9827 14.721L13.9771 14.727L13.9714 14.7329L13.7985 14.9163L13.7928 14.9223L13.7872 14.9283L13.6157 15.1133L13.6101 15.1193L13.6045 15.1254L13.4345 15.3119L13.4289 15.3181L13.4233 15.3243L13.2547 15.5124L13.2491 15.5186L13.2437 15.5249L13.0764 15.7147L13.0709 15.7209L13.0654 15.7272L12.8996 15.9186L12.8942 15.9249L12.8888 15.9313L12.7245 16.1243L12.719 16.1307L12.7136 16.1371L12.5508 16.3318L12.5454 16.3382L12.54 16.3447L12.3787 16.541L12.3734 16.5475L12.3681 16.554L12.2082 16.752L12.2029 16.7585L12.1977 16.7651L12.0393 16.9647L12.0341 16.9713L12.0289 16.9779L11.872 17.1791L11.8668 17.1858L11.8616 17.1925L11.7063 17.3952L11.7012 17.402L11.6961 17.4088L11.5423 17.6132L11.5373 17.6199L11.5322 17.6267L11.3799 17.8328L11.3749 17.8397L11.3699 17.8465L11.2193 18.0542L11.2143 18.0611L11.2093 18.0679L11.0603 18.2773L11.0553 18.2842L11.0504 18.2912L10.9029 18.5021L10.898 18.5091L10.8932 18.5161L10.7473 18.7286L10.7425 18.7357L10.7378 18.7428L10.5935 18.9569L10.5887 18.964L10.584 18.9711L10.4414 19.187L10.4366 19.194L10.432 19.2012L10.291 19.4186L10.2863 19.4258L10.2818 19.433L10.1774 19.5971L10.0624 19.7536L10.0573 19.7605L10.0523 19.7675L9.90078 19.9776L9.89578 19.9846L9.8909 19.9915L9.74144 20.2027L9.73648 20.2097L9.73168 20.2166L9.58426 20.4287L9.57945 20.4358L9.57465 20.4428L9.42941 20.6558L9.42461 20.6628L9.41984 20.6698L9.27672 20.8837L9.27203 20.8908L9.26734 20.8979L9.12629 21.1127L9.1216 21.1198L9.11703 21.127L8.97805 21.3426L8.97348 21.3497L8.96894 21.3569L8.83211 21.5734L8.8275 21.5806L8.82309 21.5878L8.68828 21.8052L8.68387 21.8124L8.67941 21.8196L8.54668 22.0379L8.54234 22.0451L8.53797 22.0523L8.40738 22.2715L8.40301 22.2787L8.39871 22.2859L8.2702 22.5059L8.2659 22.5131L8.26172 22.5204L8.13523 22.7412L8.13102 22.7484L8.12691 22.7558L8.00246 22.9773L7.99836 22.9845L7.9943 22.992L7.87188 23.2143L7.86781 23.2216L7.86383 23.2289L7.74352 23.4521L7.73957 23.4594L7.73566 23.4667L7.6173 23.6907L7.61344 23.698L7.60953 23.7054L7.49328 23.93L7.48945 23.9374L7.48574 23.9448L7.37145 24.1702L7.3677 24.1776L7.36406 24.185L7.25184 24.4111L7.24816 24.4185L7.24449 24.4259L7.13434 24.6528L7.13074 24.6602L7.12715 24.6677L7.01895 24.8952L7.01543 24.9026L7.01203 24.9101L6.90582 25.1383L6.90238 25.1458L6.89895 25.1532L6.87148 25.2137L6.75223 25.5577L6.69898 25.9178L6.71344 26.2815L6.79512 26.6363L6.94129 26.9698L7.14676 27.2703L7.40441 27.5275L7.70539 27.7323L8.0391 27.8778L8.39402 27.9588L8.75777 27.9726L9.11781 27.9186L9.46156 27.7986L9.77715 27.617L10.0535 27.38L10.281 27.0959L10.4271 26.8312L10.4507 26.7793L10.5498 26.5663L10.6525 26.3501L10.6551 26.3448L10.7508 26.1478L10.7518 26.1457L10.8599 25.9279L10.9682 25.7144L10.9698 25.7111L11.0767 25.505L11.0786 25.5013L11.185 25.3L11.2989 25.089L11.3016 25.0838L11.4127 24.8822L11.5305 24.6727L11.5324 24.6692L11.648 24.4677L11.6507 24.4631L11.7659 24.2661L11.8842 24.0675L11.8871 24.0629L12.0123 23.8569L12.1395 23.6518L12.2688 23.4474L12.2709 23.4441L12.4 23.2437L12.4007 23.2427L12.5231 23.0563L12.5266 23.0511L12.6617 22.8492L12.7985 22.6486L12.9374 22.4487L12.9397 22.4454L13.0743 22.2553L13.2171 22.0572L13.3645 21.8565L13.4032 21.8039L13.4382 21.7488L13.5738 21.5357L13.7069 21.3305L13.7093 21.3268L13.8375 21.1329L13.9679 20.9393L13.9696 20.9368L14.1098 20.7325L14.2488 20.5338L14.2516 20.5297L14.3884 20.3379L14.3909 20.3343L14.5265 20.1476L14.6702 19.9532L14.8142 19.7616L14.8177 19.7571L14.9566 19.5758L15.1039 19.387L15.2469 19.2066L15.2492 19.2038L15.4001 19.0169L15.5514 18.8328L15.7087 18.6448L15.7098 18.6436L15.8634 18.4633L16.0073 18.297L16.0078 18.2966L16.1735 18.1084L16.1745 18.1073L16.3284 17.9356L16.3322 17.9315L16.4889 17.7597L16.4912 17.7572L16.6468 17.5894L16.8102 17.4163L16.813 17.4132L16.9646 17.2553L16.966 17.2538L17.1365 17.079L17.1402 17.0752L17.2996 16.9146L17.4684 16.7472L17.4724 16.7433L17.6341 16.5858L17.8056 16.4215L17.8098 16.4174L17.9741 16.2625L18.1401 16.1085L18.1436 16.1053L18.3239 15.9409L18.325 15.9399L18.4963 15.7863L18.4991 15.7837L18.6624 15.6396L18.6648 15.6375L18.8389 15.4863L18.8399 15.4856L19.0166 15.3345L19.0209 15.331L19.203 15.178L19.2077 15.1741L19.381 15.031L19.5657 14.881L19.5689 14.8783L19.7389 14.7425L19.7426 14.7396L19.7553 14.7296L20.0193 14.479L20.2322 14.1836L20.3866 13.854L20.4772 13.5014L20.5007 13.1381L20.4564 12.7768L20.3458 12.4298L20.1728 12.1095L19.9433 11.827L19.6654 11.5918L19.3486 11.4124L19.0041 11.2948L18.6437 11.2433L18.28 11.2594ZM73.8339 36.3016L73.481 36.3913L73.1509 36.5449L72.8552 36.7571L72.6038 37.0205L72.4058 37.326L72.2679 37.6629L72.1948 38.0195L72.1854 38.3217L72.2003 38.6415L72.2125 38.9857L72.2208 39.3231L72.2256 39.6602L72.2266 40.0057L72.2291 40.032L72.2276 40.0654L72.236 40.3127L72.2422 40.5633V40.567L72.2459 40.8055V40.8086L72.2476 41.0384L72.2472 41.2881V41.2908L72.2447 41.5291V41.5311L72.2403 41.7611L72.2337 42.002L72.2251 42.2415L72.2143 42.4807L72.2015 42.7202L72.1867 42.9591L72.1696 43.1973L72.1693 43.202L72.1506 43.4353L72.1502 43.439L72.1302 43.6648L72.1073 43.9027L72.0823 44.14L72.0552 44.3762L72.0278 44.6L72.0272 44.6043L71.9952 44.848L71.9948 44.8507L71.9632 45.0754L71.9282 45.3112L71.8914 45.545L71.8906 45.5499L71.8535 45.7727L71.8126 46.0072L71.7699 46.2397L71.769 46.2446L71.7266 46.4649L71.6798 46.6982L71.6309 46.931L71.6303 46.9345L71.5821 47.1548L71.5295 47.387L71.5284 47.3916L71.477 47.6098L71.4204 47.8413L71.4191 47.8466L71.3643 48.0634L71.3039 48.2938L71.3025 48.2993L71.2456 48.5095L71.2447 48.5126L71.18 48.7441L71.1785 48.7497L71.1141 48.9731L71.1137 48.974L71.0487 49.1928L71.0472 49.1977L70.9815 49.4123L70.9136 49.6283L70.9127 49.6314L70.8393 49.8582L70.7685 50.0715L70.7669 50.0761L70.6899 50.3019L70.6881 50.307L70.613 50.5214L70.6111 50.5268L70.5332 50.7434L70.5322 50.7461L70.457 50.9503L70.4557 50.9539L70.3725 51.1747L70.291 51.3857L70.2896 51.3895L70.2044 51.6052L70.0259 52.0417L69.8439 52.4678L69.654 52.8938L69.4556 53.3213L69.2542 53.7382L69.0461 54.1529L68.8307 54.5667L68.717 54.7772L68.5746 55.1122L68.4969 55.4679L68.4865 55.8318L68.5438 56.1913L68.6669 56.5339L68.8514 56.8478L69.0909 57.1219L69.3772 57.3468L69.7002 57.5148L70.0488 57.6197L70.4108 57.6582L70.7737 57.6289L71.1248 57.5327L71.452 57.3731L71.7438 57.1555L71.9903 56.8874L72.1541 56.6334L72.274 56.4114L72.2809 56.3985L72.2877 56.3855L72.5168 55.9457L72.5236 55.9326L72.5302 55.9194L72.7526 55.4762L72.7593 55.4629L72.7657 55.4495L72.9814 55.0029L72.9879 54.9895L72.9942 54.9759L73.203 54.526L73.2093 54.5123L73.2155 54.4986L73.4174 54.0454L73.4235 54.0316L73.4295 54.0177L73.6244 53.5613L73.6304 53.5473L73.6361 53.5332L73.824 53.0738L73.8283 53.0631L73.8326 53.0525L73.9238 52.8215L73.9266 52.8144L73.9294 52.8072L74.0189 52.5756L74.0216 52.5684L74.0243 52.5611L74.112 52.3287L74.1146 52.3215L74.1173 52.3142L74.2032 52.0811L74.2059 52.0738L74.2085 52.0665L74.2925 51.8326L74.2951 51.8253L74.2976 51.8179L74.3798 51.5832L74.3823 51.5759L74.3848 51.5685L74.4652 51.3332L74.4677 51.3257L74.4701 51.3184L74.5486 51.0822L74.5511 51.0748L74.5535 51.0674L74.63 50.8306L74.6325 50.823L74.6348 50.8156L74.7096 50.578L74.7119 50.5705L74.7143 50.563L74.7871 50.3248L74.7895 50.3172L74.7917 50.3096L74.8627 50.0707L74.8649 50.0631L74.8671 50.0555L74.9362 49.8159L74.9384 49.8083L74.9405 49.8007L75.0076 49.5604L75.0098 49.5527L75.0119 49.545L75.0771 49.3041L75.0791 49.2963L75.0812 49.2886L75.1445 49.047L75.1464 49.0393L75.1484 49.0315L75.2098 48.7893L75.2117 48.7815L75.2136 48.7738L75.273 48.5308L75.2749 48.523L75.2767 48.5152L75.3341 48.2716L75.336 48.2638L75.3377 48.2559L75.3931 48.0118L75.395 48.0039L75.3966 47.9959L75.4501 47.7512L75.4518 47.7432L75.4535 47.7353L75.5048 47.4899L75.5065 47.4819L75.5081 47.474L75.5576 47.2279L75.5591 47.22L75.5607 47.212L75.6081 46.9654L75.6096 46.9573L75.6111 46.9493L75.6564 46.7021L75.6579 46.694L75.6593 46.6859L75.7026 46.4382L75.7039 46.4301L75.7053 46.422L75.7466 46.1736L75.7479 46.1656L75.7492 46.1574L75.7884 45.9085L75.7897 45.9003L75.7909 45.8922L75.828 45.6427L75.8291 45.6345L75.8303 45.6263L75.8653 45.3763L75.8665 45.368L75.8676 45.3598L75.9005 45.1093L75.9015 45.1011L75.9026 45.0928L75.9334 44.8417L75.9344 44.8334L75.9353 44.8252L75.9641 44.5734L75.965 44.5652L75.9658 44.5569L75.9925 44.3047L75.9933 44.2964L75.9941 44.2881L76.0186 44.0354L76.0194 44.027L76.0202 44.0187L76.0425 43.7655L76.0432 43.7572L76.0439 43.7488L76.0641 43.4951L76.0647 43.4867L76.0653 43.4783L76.0834 43.2241L76.084 43.2157L76.0845 43.2074L76.1004 42.9527L76.1009 42.9442L76.1014 42.9358L76.1151 42.6806L76.1155 42.6722L76.1159 42.6638L76.1274 42.4082L76.1278 42.3997L76.1282 42.3912L76.1375 42.1351L76.1378 42.1266L76.1382 42.1182L76.1453 41.8616L76.1457 41.8531V41.8447L76.1505 41.5876V41.5706L76.1531 41.3132V41.2962L76.1535 41.0383V41.0212L76.1516 40.7629V40.7458L76.1474 40.4872V40.47L76.1409 40.2109V40.2023L76.1405 40.1938L76.1328 39.9634L76.1318 39.6354V39.6141L76.1269 39.2556V39.245L76.1265 39.2345L76.1176 38.8761L76.1172 38.8655L76.1168 38.855L76.1041 38.4968L76.1037 38.4863L76.1032 38.4757L76.0876 38.1406L76.0369 37.7801L75.9202 37.4352L75.7415 37.1181L75.5071 36.8395L75.2251 36.6095L74.9052 36.4356L74.5586 36.3242L74.1973 36.2789L73.8339 36.3016ZM5.59449 37.7933L5.23879 37.8708L4.90371 38.013L4.60074 38.215L4.34059 38.4697L4.13223 38.7681L3.98285 39.1002L3.8977 39.4541L3.87793 39.7557L3.88102 40.0055L3.88113 40.0194L3.88152 40.0334L3.89465 40.5298L3.89504 40.5436L3.89559 40.5575L3.91578 41.0538L3.91633 41.0676L3.91711 41.0815L3.94434 41.5775L3.94512 41.5912L3.94602 41.605L3.98027 42.1007L3.98117 42.1144L3.98234 42.1281L4.02352 42.6234L4.02469 42.6371L4.02594 42.6507L4.0741 43.1455L4.07547 43.159L4.07691 43.1725L4.13199 43.6668L4.13344 43.6802L4.13512 43.6937L4.19707 44.1873L4.19875 44.2006L4.20059 44.2141L4.26934 44.7068L4.27125 44.7201L4.2732 44.7335L4.34875 45.2254L4.35082 45.2386L4.35301 45.2518L4.43535 45.7428L4.43758 45.756L4.43992 45.7691L4.52902 46.2589L4.53137 46.2721L4.53391 46.2852L4.62965 46.7739L4.63227 46.7869L4.635 46.8L4.73738 47.2874L4.74012 47.3004L4.74305 47.3134L4.85203 47.7994L4.85496 47.8124L4.85809 47.8253L4.97375 48.3099L4.9768 48.3228L4.98 48.3356L5.10223 48.8187L5.10551 48.8314L5.10895 48.8443L5.23766 49.3257L5.24109 49.3384L5.24465 49.3512L5.37992 49.8309L5.38352 49.8436L5.38727 49.8562L5.52902 50.3341L5.53273 50.3466L5.53664 50.3592L5.6848 50.8352L5.68871 50.8477L5.69281 50.8602L5.84738 51.3342L5.85145 51.3467L5.8557 51.3592L6.01668 51.8311L6.0209 51.8435L6.02531 51.8558L6.19262 52.3255L6.19695 52.3379L6.20156 52.3501L6.3752 52.8175L6.37977 52.8298L6.38449 52.8421L6.56441 53.307L6.5691 53.3193L6.57402 53.3315L6.76008 53.7939L6.76504 53.8061L6.77012 53.8182L6.96242 54.2782L6.9675 54.2903L6.97281 54.3024L7.17125 54.7596L7.17652 54.7716L7.18191 54.7837L7.38652 55.2381L7.39199 55.2501L7.39754 55.2621L7.60824 55.7136L7.61391 55.7256L7.61961 55.7376L7.83645 56.1861L7.84227 56.198L7.8482 56.2099L7.91812 56.3498L8.11066 56.6589L8.35715 56.9268L8.64914 57.1443L8.97637 57.3038L9.32754 57.3999L9.69039 57.4291L10.0524 57.3904L10.4009 57.2853L10.7239 57.1173L11.01 56.8922L11.2495 56.618L11.4339 56.3041L11.5568 55.9614L11.614 55.6018L11.6034 55.2379L11.5256 54.8823L11.4117 54.6023L11.3488 54.4765L11.142 54.0489L10.9441 53.6248L10.7488 53.1909L10.562 52.7611L10.3792 52.3239L10.2034 51.887L10.0322 51.4445L9.86812 51.0029L9.71008 50.5591L9.55742 50.1117L9.41086 49.6623L9.26977 49.2091L9.13633 48.7593L9.00859 48.3065L8.88562 47.8468L8.77039 47.3911L8.66164 46.9354L8.55758 46.4719L8.46008 46.0075L8.37012 45.5484L8.28535 45.0822L8.20777 44.6198L8.13613 44.1531L8.0716 43.6905L8.01285 43.2222L7.96074 42.7536L7.91512 42.285L7.87621 41.8168L7.84387 41.3481L7.81812 40.8797L7.79914 40.4113L7.7868 39.9437L7.78387 39.7083L7.74559 39.3463L7.64074 38.9977L7.47297 38.6745L7.24824 38.3882L6.97418 38.1485L6.66047 37.9638L6.31789 37.8406L5.9584 37.7831L5.59449 37.7933ZM61.1231 64.5109L60.7702 64.6L60.4398 64.753L60.1911 64.9249L60.1579 64.9519L59.7893 65.2431L59.416 65.53L59.0359 65.8139L58.6523 66.0927L58.2686 66.3636L57.8801 66.6301L57.4895 66.8905L57.0916 67.148L56.6906 67.4L56.2862 67.6465L55.8829 67.8848L55.4724 68.12L55.0614 68.3482L54.6452 68.5718L54.2284 68.7886L53.8027 69.0025L53.3832 69.2062L52.9569 69.406L52.5263 69.6005L52.0975 69.7873L51.6628 69.9694L51.2233 70.1463L50.7912 70.3131L50.3462 70.478L49.9061 70.6339L49.4643 70.7834L49.0161 70.9279L48.5698 71.0647L48.1191 71.196L47.6672 71.3203L47.2127 71.4383L46.7633 71.548L46.4206 71.6264L46.0748 71.7402L45.7561 71.9163L45.4757 72.1484L45.2432 72.4286L45.0667 72.7469L44.9524 73.0926L44.9042 73.4534L44.9238 73.817L45.0105 74.1706L45.1614 74.5018L45.3712 74.7995L45.6325 75.0529L45.9363 75.2535L46.272 75.3943L46.628 75.4702L46.992 75.4788L47.291 75.4344L47.6465 75.3531L47.6605 75.3499L47.6745 75.3466L48.1564 75.2289L48.1703 75.2255L48.1841 75.2219L48.6643 75.0972L48.678 75.0936L48.6918 75.0898L49.1702 74.9582L49.1838 74.9543L49.1974 74.9504L49.6739 74.8118L49.6874 74.8078L49.7009 74.8037L50.1755 74.6582L50.1888 74.6541L50.2022 74.6497L50.6747 74.4973L50.688 74.493L50.7012 74.4886L51.1716 74.3294L51.1848 74.325L51.1978 74.3203L51.666 74.1546L51.6791 74.1499L51.692 74.1451L52.1579 73.9726L52.1708 73.9679L52.1837 73.9629L52.6472 73.7838L52.66 73.7788L52.6727 73.7737L53.1339 73.5881L53.1464 73.583L53.159 73.5778L53.6176 73.3857L53.6302 73.3804L53.6427 73.375L54.0987 73.1765L54.111 73.171L54.1234 73.1655L54.5767 72.9606L54.589 72.9551L54.6012 72.9493L55.0518 72.7382L55.0639 72.7325L55.0761 72.7266L55.5237 72.5092L55.5358 72.5034L55.5478 72.4974L55.9926 72.2738L56.0045 72.2678L56.0164 72.2616L56.4582 72.032L56.47 72.0258L56.4817 72.0195L56.9204 71.7838L56.9321 71.7775L56.9437 71.7711L57.3792 71.5293L57.3908 71.5229L57.4023 71.5163L57.8346 71.2686L57.8461 71.262L57.8575 71.2553L58.2864 71.0018L58.2978 70.995L58.3091 70.9881L58.7346 70.7288L58.7459 70.722L58.757 70.7149L59.1791 70.4498L59.1902 70.4428L59.2013 70.4356L59.6198 70.1648L59.6307 70.1577L59.6417 70.1504L60.0566 69.8739L60.0675 69.8666L60.0783 69.8592L60.4893 69.5772L60.5002 69.5697L60.5109 69.5621L60.9181 69.2746L60.9289 69.267L60.9396 69.2593L61.3428 68.9663L61.3534 68.9586L61.364 68.9507L61.7634 68.6523L61.7739 68.6444L61.7843 68.6364L62.1796 68.3327L62.19 68.3246L62.2003 68.3164L62.5915 68.0075L62.6018 67.9993L62.612 67.991L62.6539 67.957L62.9138 67.7022L63.122 67.4034L63.2711 67.0714L63.3559 66.7173L63.3737 66.3537L63.3236 65.9932L63.2075 65.6481L63.0293 65.3306L62.7954 65.0517L62.5137 64.8211L62.1941 64.6466L61.8477 64.5347L61.4865 64.4889L61.1231 64.5109ZM17.8244 64.6341L17.4792 64.7496L17.1614 64.9273L16.8822 65.1608L16.6511 65.4421L16.4762 65.7614L16.3636 66.1076L16.3172 66.4687L16.3387 66.8321L16.4272 67.1853L16.5797 67.5158L16.7909 67.8123L17.0056 68.0252L17.1107 68.1143L17.1223 68.1241L17.134 68.1338L17.5176 68.4491L17.5294 68.4587L17.5413 68.4683L17.9298 68.7776L17.9389 68.7848L17.948 68.7919L18.1441 68.9443L18.1502 68.949L18.1564 68.9538L18.3538 69.1047L18.3599 69.1093L18.3661 69.114L18.5648 69.2634L18.5709 69.268L18.5772 69.2727L18.7771 69.4205L18.7833 69.4251L18.7897 69.4297L18.9908 69.576L18.9971 69.5806L19.0034 69.5852L19.2059 69.7299L19.2122 69.7345L19.2186 69.739L19.4221 69.8821L19.4286 69.8866L19.435 69.8911L19.6399 70.0327L19.6464 70.0371L19.6529 70.0416L19.8589 70.1816L19.8654 70.186L19.872 70.1904L20.0793 70.3287L20.0858 70.3331L20.0925 70.3375L20.3009 70.4742L20.3075 70.4786L20.3143 70.4829L20.5239 70.618L20.5306 70.6223L20.5373 70.6266L20.7482 70.7601L20.7549 70.7644L20.7617 70.7686L20.9738 70.9004L20.9806 70.9046L20.9875 70.9088L21.2007 71.0389L21.2076 71.0431L21.2145 71.0473L21.4289 71.1757L21.4359 71.1798L21.4428 71.1839L21.6584 71.3107L21.6654 71.3147L21.6724 71.3188L21.8892 71.4439L21.8962 71.448L21.9032 71.4519L22.1213 71.5753L22.1283 71.5793L22.1354 71.5832L22.3546 71.7048L22.3617 71.7088L22.3689 71.7127L22.5892 71.8325L22.5964 71.8364L22.6035 71.8403L22.8251 71.9584L22.8323 71.9623L22.8395 71.9661L23.0622 72.0824L23.0695 72.0862L23.0768 72.09L23.3006 72.2046L23.3079 72.2083L23.3153 72.212L23.5403 72.3248L23.5476 72.3284L23.555 72.3321L23.7811 72.4431L23.7886 72.4468L23.796 72.4504L24.0233 72.5595L24.0307 72.5631L24.0382 72.5666L24.2667 72.674L24.2741 72.6776L24.2817 72.681L24.5112 72.7865L24.5187 72.79L24.5264 72.7934L24.757 72.8971L24.7646 72.9005L24.7723 72.9039L25.0041 73.0057L25.0117 73.0091L25.0194 73.0123L25.2523 73.1123L25.26 73.1157L25.2677 73.1189L25.5018 73.217L25.5095 73.2202L25.5173 73.2234L25.7524 73.3195L25.7602 73.3227L25.768 73.3258L26.0043 73.4201L26.0121 73.4232L26.0199 73.4263L26.2573 73.5186L26.2652 73.5217L26.273 73.5247L26.5115 73.6151L26.5194 73.6181L26.5273 73.621L26.767 73.7095L26.7748 73.7124L26.7829 73.7153L27.0235 73.8018L27.0315 73.8046L27.0394 73.8075L27.2812 73.8921L27.2892 73.8948L27.2973 73.8975L27.5401 73.9802L27.5481 73.9829L27.5562 73.9855L27.8002 74.0662L27.8082 74.0689L27.8163 74.0714L28.0614 74.15L28.0695 74.1526L28.0777 74.1552L28.3237 74.2317L28.3318 74.2343L28.34 74.2368L28.5872 74.3113L28.5954 74.3138L28.6035 74.3162L28.8518 74.3887L28.86 74.3911L28.8682 74.3934L29.1175 74.4639L29.1257 74.4663L29.134 74.4685L29.3223 74.52L29.5064 74.5836L29.5145 74.5863L29.5225 74.5891L29.768 74.6715L29.7761 74.6743L29.7843 74.6769L30.0299 74.757L30.0381 74.7597L30.0462 74.7622L30.2921 74.8401L30.3003 74.8426L30.3084 74.8452L30.5546 74.9207L30.5629 74.9233L30.5709 74.9256L30.8175 74.9989L30.8256 75.0014L30.8337 75.0037L31.0805 75.0748L31.0887 75.0771L31.0968 75.0795L31.3438 75.1483L31.352 75.1506L31.3602 75.1528L31.6073 75.2193L31.6155 75.2215L31.6237 75.2236L31.8711 75.288L31.8793 75.2901L31.8874 75.2922L32.1351 75.3543L32.1433 75.3563L32.1514 75.3583L32.3992 75.4182L32.4074 75.4202L32.4156 75.4221L32.4241 75.424L32.7848 75.473L33.1484 75.4543L33.5022 75.3684L33.8338 75.2184L34.1319 75.0094L34.3861 74.7487L34.5874 74.4454L34.7289 74.11L34.8057 73.7541L34.8152 73.3902L34.757 73.0309L34.633 72.6886L34.4477 72.3751L34.2075 72.1016L33.9207 71.8775L33.5972 71.7104L33.3167 71.6217L33.3169 71.6212L33.3089 71.6193L33.0747 71.5627L32.8431 71.5045L32.8379 71.5032L32.623 71.4474L32.62 71.4466L32.3922 71.3853L32.3888 71.3844L32.1616 71.3211L32.158 71.3201L31.9257 71.2532L31.6901 71.1832L31.4709 71.1159L31.4659 71.1143L31.2337 71.0409L31.0047 70.9662L30.7758 70.8894L30.5372 70.8069L30.4762 70.7858L30.4141 70.7688L30.1724 70.7028L29.9376 70.6364L29.7035 70.568L29.699 70.5666L29.4785 70.5001L29.2489 70.4286L29.0179 70.3546L28.7879 70.2786L28.5561 70.1996L28.555 70.1993L28.3382 70.1234L28.1108 70.0417L27.8848 69.9582L27.8807 69.9566L27.6669 69.8755L27.452 69.792L27.4497 69.7911L27.2312 69.704L27.2264 69.702L27.0041 69.6111L26.7825 69.5182L26.7774 69.5161L26.5694 69.4268L26.3502 69.3306L26.1356 69.234L25.918 69.134L25.9134 69.1319L25.7087 69.0356L25.4966 68.9336L25.2854 68.83L25.0753 68.7247L24.8715 68.6204L24.8699 68.6195L24.6543 68.507L24.4561 68.4013L24.4508 68.3984L24.25 68.2892L24.248 68.2881L24.0357 68.1702L24.0309 68.1676L23.8349 68.0566L23.6382 67.9432L23.6349 67.9413L23.4363 67.8247L23.4319 67.822L23.2277 67.6996L23.036 67.5827L23.0308 67.5794L22.8307 67.4552L22.6399 67.3345L22.6361 67.332L22.4316 67.2002L22.4303 67.1993L22.2385 67.0734L22.2351 67.0713L22.0466 66.9454L21.8611 66.8193L21.8578 66.817L21.6634 66.6827L21.4783 66.5526L21.4747 66.55L21.2806 66.4112L21.2759 66.4079L21.0938 66.2753L20.9125 66.1413L20.9096 66.1391L20.7188 65.9957L20.7138 65.9919L20.5409 65.8598L20.5366 65.8565L20.3516 65.7126L19.9876 65.4227L19.6229 65.123L19.5328 65.0464L19.2345 64.8379L18.9026 64.6882L18.5487 64.6027L18.1851 64.5845L17.8244 64.6341Z" fill="white"/>
</svg>
