<svg width="80" height="80" viewBox="0 0 80 80" fill="none" xmlns="http://www.w3.org/2000/svg">
<path d="M31.7652 58.4681C30.0608 63.5806 25.9995 67.3365 20.0196 69.3297C17.3373 70.2166 14.5398 70.7066 11.7158 70.784C11.0528 70.784 10.4169 70.5206 9.94803 70.0518C9.47919 69.583 9.2158 68.9471 9.2158 68.284C9.29325 65.46 9.78322 62.6625 10.6702 59.9803C12.6633 54.0003 16.4192 49.9387 21.5317 48.2347C21.8432 48.1308 22.1721 48.0894 22.4995 48.1126C22.827 48.1359 23.1467 48.2234 23.4404 48.3703C23.734 48.5171 23.9959 48.7203 24.211 48.9683C24.4261 49.2163 24.5903 49.5043 24.6941 49.8157C24.7979 50.1272 24.8394 50.4561 24.8161 50.7835C24.7928 51.111 24.7053 51.4307 24.5585 51.7244C24.4117 52.018 24.2084 52.2799 23.9604 52.495C23.7124 52.7101 23.4244 52.8743 23.113 52.9781C16.9702 55.0256 15.0674 61.6937 14.4789 65.5212C18.3046 64.9328 24.9739 63.0303 27.0217 56.8868C27.1256 56.5754 27.2897 56.2874 27.5048 56.0393C27.72 55.7913 27.9818 55.5881 28.2755 55.4412C28.5692 55.2944 28.8889 55.2069 29.2164 55.1836C29.5439 55.1603 29.8728 55.2018 30.1842 55.3056C30.4957 55.4094 30.7837 55.5736 31.0317 55.7887C31.2798 56.0038 31.483 56.2657 31.6298 56.5594C31.7767 56.853 31.8642 57.1727 31.8875 57.5002C31.9108 57.8277 31.8693 58.1566 31.7655 58.4681H31.7652ZM62.9811 34.6962L60.1783 37.4997V56.6418C60.1801 57.2987 60.0515 57.9493 59.8002 58.5562C59.5488 59.163 59.1796 59.7139 58.7139 60.1772L48.6064 70.284C47.9665 70.924 47.1649 71.3784 46.287 71.5985C45.4091 71.8187 44.488 71.7965 43.6217 71.5342C42.7555 71.2719 41.9767 70.7795 41.3684 70.1093C40.7601 69.4392 40.3451 68.6165 40.1677 67.729L37.6971 55.3747L24.6252 42.3028L12.2708 39.8318C11.3834 39.6544 10.5608 39.2394 9.89075 38.6311C9.22068 38.0229 8.72824 37.2442 8.46595 36.3781C8.20367 35.512 8.18136 34.5909 8.40142 33.7131C8.62148 32.8353 9.07564 32.0337 9.71549 31.3937L19.8221 21.2865C20.2853 20.8209 20.8364 20.4517 21.4432 20.2003C22.0501 19.949 22.7008 19.8204 23.3577 19.8222H42.5002L45.3033 17.0187C54.2374 8.08559 63.4042 8.34466 66.9314 8.87091C67.9901 9.02459 68.9708 9.51628 69.7272 10.2727C70.4837 11.0291 70.9755 12.0097 71.1292 13.0684C71.6558 16.5953 71.9152 25.7625 62.9814 34.6965L62.9811 34.6962ZM13.2511 34.9287L25.0361 37.2856L37.5002 24.8222H23.358L13.2511 34.9287ZM29.3939 39.9997L40.0002 50.6062L59.4455 31.1609C61.8861 28.7203 67.428 22.144 66.1839 13.8068C57.8527 12.5715 51.2792 18.114 48.8389 20.5543L29.3939 39.9997ZM55.1783 42.4997L42.7142 54.9637L45.0714 66.7487L55.178 56.6418L55.1783 42.4997Z" fill="white"/>
</svg>
