<svg width="80" height="80" viewBox="0 0 80 80" fill="none" xmlns="http://www.w3.org/2000/svg">
<path d="M46.6667 26.6666H15.5556C14.9662 26.6666 14.401 26.4325 13.9842 26.0157C13.5675 25.599 13.3333 25.0337 13.3333 24.4444V15.5555C13.3333 14.9661 13.5675 14.4009 13.9842 13.9841C14.401 13.5674 14.9662 13.3333 15.5556 13.3333H46.6667C47.256 13.3333 47.8213 13.5674 48.238 13.9841C48.6548 14.4009 48.8889 14.9661 48.8889 15.5555V24.4444C48.8889 25.0337 48.6548 25.599 48.238 26.0157C47.8213 26.4325 47.256 26.6666 46.6667 26.6666ZM17.7778 22.2221H44.4445V17.6444H17.7778V22.2221Z" fill="white"/>
<path d="M46.6667 31.2888H15.5556C14.9662 31.2888 14.401 31.5229 13.9842 31.9397C13.5675 32.3564 13.3333 32.9217 13.3333 33.511V42.2222C13.3333 42.8115 13.5675 43.3768 13.9842 43.7935C14.401 44.2102 14.9662 44.4444 15.5556 44.4444H40.8L48.8889 36.2222V33.511C48.8889 32.9217 48.6548 32.3564 48.238 31.9397C47.8213 31.5229 47.256 31.2888 46.6667 31.2888ZM44.4445 39.9999H17.7778V35.5555H44.4445V39.9999Z" fill="white"/>
<path d="M24.5778 70.0221V69.8888L25.2889 66.7999H8.8889V8.88878H53.3333V31.6666L57.7778 27.4666V6.66656C57.7778 6.07719 57.5437 5.51196 57.1269 5.09521C56.7102 4.67846 56.1449 4.44434 55.5556 4.44434H6.66668C6.07731 4.44434 5.51208 4.67846 5.09533 5.09521C4.67858 5.51196 4.44446 6.07719 4.44446 6.66656V68.8888C4.44446 69.4782 4.67858 70.0434 5.09533 70.4601C5.51208 70.8769 6.07731 71.111 6.66668 71.111H24.4445C24.4628 70.7453 24.5073 70.3814 24.5778 70.0221Z" fill="white"/>
<path d="M48.8889 42.6001L47.1555 44.3556C47.5856 44.267 47.9797 44.0529 48.2882 43.7405C48.5967 43.4281 48.8057 43.0312 48.8889 42.6001Z" fill="white"/>
<path d="M13.3333 59.8667C13.3333 60.4561 13.5675 61.0213 13.9842 61.438C14.401 61.8548 14.9662 62.0889 15.5556 62.0889H26.3111L26.9778 59.2L27.2667 57.9778V57.8667H17.7778V53.3334H31.8667L36.3111 48.8889H15.5556C14.9662 48.8889 14.401 49.123 13.9842 49.5398C13.5675 49.9565 13.3333 50.5218 13.3333 51.1111V59.8667Z" fill="white"/>
<path d="M74.4222 37.0444L66.9333 29.5555C66.601 29.2223 66.2061 28.9578 65.7714 28.7774C65.3367 28.597 64.8707 28.5042 64.4 28.5042C63.9293 28.5042 63.4633 28.597 63.0286 28.7774C62.5939 28.9578 62.199 29.2223 61.8667 29.5555L31.4 60.2L28.8889 70.8889C28.7949 71.35 28.7928 71.8251 28.8827 72.2871C28.9726 72.749 29.1527 73.1887 29.4128 73.5809C29.6729 73.9731 30.0079 74.3102 30.3984 74.5728C30.789 74.8353 31.2275 75.0183 31.6889 75.1111C31.9179 75.1341 32.1487 75.1341 32.3778 75.1111C32.6501 75.1555 32.9277 75.1555 33.2 75.1111L43.9778 72.7333L74.4222 42.2222C74.7548 41.8917 75.0188 41.4988 75.1989 41.0659C75.379 40.633 75.4717 40.1688 75.4717 39.7C75.4717 39.2311 75.379 38.7669 75.1989 38.334C75.0188 37.9012 74.7548 37.5082 74.4222 37.1777V37.0444ZM41.7111 68.6889L33.5778 70.4889L35.5556 62.4222L58.4 39.3333L64.6667 45.6L41.7111 68.6889ZM67.1778 43.0889L60.9111 36.8222L64.4444 33.3333L70.7556 39.6444L67.1778 43.0889Z" fill="white"/>
</svg>
