<svg width="46" height="30" viewBox="0 0 46 30" fill="none" xmlns="http://www.w3.org/2000/svg">
<path d="M44.5402 4.71518C44.2857 3.8071 43.7898 2.98496 43.1054 2.33618C42.4016 1.66744 41.539 1.18908 40.599 0.946242C37.081 0.0189935 22.9869 0.0189937 22.9869 0.0189937C17.1112 -0.0478569 11.2369 0.246169 5.39724 0.899411C4.45723 1.16019 3.59624 1.64924 2.89085 2.32307C2.19776 2.98994 1.69573 3.81228 1.43348 4.71331C0.8035 8.10712 0.497413 11.5531 0.519345 15.0048C0.496866 18.4535 0.802202 21.8983 1.43348 25.2964C1.69011 26.1936 2.19027 27.0122 2.88523 27.6735C3.5802 28.3347 4.44563 28.8124 5.39724 29.0653C8.96199 29.9907 22.9869 29.9907 22.9869 29.9907C28.87 30.0576 34.7518 29.7636 40.599 29.1103C41.539 28.8674 42.4016 28.3891 43.1054 27.7203C43.7985 27.0591 44.2911 26.2367 44.5384 25.3413C45.1848 21.9488 45.4991 18.5014 45.4769 15.0479C45.5255 11.5798 45.2116 8.11615 44.5402 4.71331V4.71518ZM18.5061 21.4188V8.59277L30.2325 15.0067L18.5061 21.4188Z" fill="white"/>
</svg>
