<svg width="312" height="83" viewBox="0 0 312 83" fill="none" xmlns="http://www.w3.org/2000/svg">
<path d="M18.6459 78.3447V82.2511H3.26539V79.1347L11.1153 71.5735C11.79 70.9762 12.3651 70.2711 12.8181 69.4858C13.0928 68.9496 13.2387 68.3545 13.2438 67.7496C13.265 67.3872 13.2011 67.0249 13.0574 66.6928C12.9138 66.3606 12.6946 66.0682 12.4179 65.8397C11.7047 65.3441 10.8482 65.1086 9.98719 65.1713C9.15456 65.1589 8.32977 65.3368 7.57347 65.6922C6.85143 66.0425 6.23097 66.5779 5.77277 67.2461L2.34161 64.9933C3.16471 63.7632 4.30083 62.7849 5.62802 62.1633C7.13103 61.4574 8.77116 61.1073 10.4257 61.139C11.7851 61.1092 13.1359 61.3663 14.3932 61.8942C15.4553 62.3379 16.373 63.0781 17.041 64.0297C17.6816 64.9844 18.0121 66.12 17.9861 67.2764C17.9917 68.3743 17.753 69.4592 17.2879 70.4493C16.5932 71.7327 15.6775 72.878 14.5847 73.8306L9.90205 78.336L18.6459 78.3447Z" fill="white"/>
<path d="M27.6622 81.3483C26.2998 80.4495 25.2231 79.1661 24.5631 77.6546C23.0704 73.961 23.0704 69.8155 24.5631 66.1219C25.2242 64.6122 26.3008 63.3306 27.6622 62.4325C29.0225 61.5973 30.5804 61.156 32.1683 61.156C33.7562 61.156 35.314 61.5973 36.6743 62.4325C38.0346 63.3319 39.1109 64.6131 39.7734 66.1219C41.2661 69.8155 41.2661 73.961 39.7734 77.6546C39.1145 79.1642 38.0411 80.4471 36.6828 81.3483C35.3225 82.1835 33.7647 82.6248 32.1768 82.6248C30.5889 82.6248 29.0311 82.1835 27.6708 81.3483H27.6622ZM35.0907 76.9297C35.7974 75.8446 36.1507 74.1648 36.1507 71.8904C36.1507 69.616 35.7974 67.9362 35.0907 66.8511C34.7806 66.3508 34.3513 65.9387 33.843 65.6531C33.3346 65.3676 32.7636 65.2178 32.1832 65.2178C31.6027 65.2178 31.0317 65.3676 30.5234 65.6531C30.015 65.9387 29.5858 66.3508 29.2756 66.8511C28.5633 67.9362 28.2085 69.616 28.2114 71.8904C28.2142 74.1648 28.569 75.8446 29.2756 76.9297C29.5858 77.43 30.015 77.8421 30.5234 78.1277C31.0317 78.4132 31.6027 78.563 32.1832 78.563C32.7636 78.563 33.3346 78.4132 33.843 78.1277C34.3513 77.8421 34.7806 77.43 35.0907 76.9297Z" fill="white"/>
<path d="M61.1308 78.3447V82.2511H45.746V79.1347L53.6001 71.5735C54.2737 70.975 54.8486 70.2701 55.3029 69.4858C55.5777 68.9496 55.7236 68.3545 55.7286 67.7496C55.7488 67.3873 55.6844 67.0254 55.5408 66.6934C55.3973 66.3615 55.1786 66.0689 54.9028 65.8397C54.1895 65.3441 53.333 65.1086 52.4721 65.1713C51.6394 65.1589 50.8146 65.3368 50.0583 65.6922C49.3363 66.0425 48.7158 66.5779 48.2576 67.2461L44.8265 64.9933C45.6486 63.7623 46.785 62.7837 48.1129 62.1633C49.6159 61.4574 51.256 61.1073 52.9105 61.139C54.2699 61.1092 55.6207 61.3663 56.878 61.8942C57.9401 62.3379 58.8579 63.0781 59.5259 64.0297C60.1664 64.9844 60.497 66.12 60.471 67.2764C60.4766 68.3743 60.2379 69.4592 59.7728 70.4493C59.078 71.7327 58.1624 72.878 57.0696 73.8306L52.3869 78.336L61.1308 78.3447Z" fill="white"/>
<path d="M73.8379 61.5036V82.2598H69.1254V65.3579H65.0557V61.5036H73.8379Z" fill="white"/>
<path d="M238.777 52.1753H238.73C234.545 52.2387 230.412 51.2289 226.71 49.2386C223.246 47.3922 220.348 44.6083 218.334 41.1925C216.293 37.6956 215.242 33.6901 215.298 29.6208C215.298 29.3184 215.298 29.008 215.298 28.7056L233.735 33.998L238.777 52.1753Z" fill="white"/>
<path d="M5.87751 49.6923C3.78777 49.1709 1.80024 48.2909 0 47.0898L2.84899 41.3437C4.4343 42.3817 6.16648 43.1655 7.985 43.6676C9.90394 44.2444 11.8932 44.5418 13.8937 44.551C18.3272 44.551 20.544 43.3599 20.544 40.9777C20.5643 40.4438 20.4085 39.9185 20.1014 39.4857C19.7944 39.0528 19.3538 38.7375 18.8502 38.5901C17.0734 37.9871 15.2436 37.5607 13.3864 37.3167C11.23 37.013 9.09852 36.5475 7.00931 35.924C5.38662 35.4184 3.92068 34.4914 2.75533 33.234C1.47563 31.7188 0.825967 29.7544 0.944454 27.7585C0.913055 26.3079 1.2423 24.8729 1.90151 23.587C2.56072 22.3012 3.52845 21.2065 4.71451 20.4048C7.22787 18.569 10.6102 17.6485 14.8616 17.6432C17.0618 17.6561 19.2535 17.9231 21.3948 18.439C23.2672 18.8239 25.0687 19.5061 26.7337 20.4605L23.8847 26.2145C21.1272 24.5939 17.9893 23.7686 14.807 23.8269C13.0986 23.722 11.3923 24.0644 9.85049 24.8218C9.35476 25.0554 8.93326 25.4261 8.63384 25.8917C8.33443 26.3574 8.16912 26.8994 8.15672 27.456C8.14338 28.027 8.31293 28.5869 8.6397 29.0507C8.96647 29.5146 9.43265 29.8572 9.96757 30.0267C11.7858 30.6951 13.6663 31.1725 15.5797 31.4513C17.6918 31.759 19.7789 32.2245 21.8241 32.844C23.4194 33.349 24.8603 34.2645 26.0078 35.5022C27.2556 36.9764 27.8862 38.891 27.764 40.8344C27.7857 42.2807 27.4416 43.7083 26.7648 44.9796C26.0881 46.2509 25.1016 47.323 23.9003 48.0926C21.3245 49.8594 17.8173 50.7428 13.3786 50.7428C10.8435 50.7347 8.32083 50.3814 5.87751 49.6923Z" fill="white"/>
<path d="M61.9364 17.9774V50.2971H54.8724V46.1825C53.6723 47.6467 52.1471 48.7981 50.4233 49.541C48.6043 50.3385 46.6428 50.7423 44.6629 50.7269C40.4219 50.7269 37.089 49.5251 34.6641 47.1216C32.2392 44.7182 31.0215 41.1501 31.0111 36.4174V17.9535H38.4341V35.3828C38.4341 38.285 39.0767 40.455 40.362 41.8929C41.0676 42.6307 41.9209 43.2046 42.8639 43.5755C43.8068 43.9463 44.8171 44.1053 45.8259 44.0417C46.994 44.1005 48.1612 43.9069 49.2508 43.4735C50.3404 43.04 51.3278 42.3766 52.1483 41.5268C53.7094 39.8555 54.4899 37.444 54.4899 34.2924V17.9774H61.9364Z" fill="white"/>
<path d="M71.0219 49.6922C68.9311 49.174 66.9431 48.2938 65.1444 47.0898L67.9934 41.3437C69.5779 42.3832 71.3103 43.167 73.1294 43.6676C75.0457 44.2443 77.0323 44.5418 79.0303 44.551C83.4638 44.551 85.6806 43.3599 85.6806 40.9776C85.7014 40.4449 85.5467 39.9203 85.2411 39.4876C84.9356 39.0549 84.4967 38.7389 83.9946 38.5901C82.2173 37.9891 80.3877 37.5627 78.5308 37.3167C76.3717 37.0137 74.2376 36.5482 72.1459 35.924C70.5089 35.4024 69.0342 34.453 67.8685 33.1703C66.5946 31.6522 65.9481 29.6892 66.0654 27.6948C66.0325 26.2449 66.3602 24.81 67.0181 23.5241C67.676 22.2382 68.6426 21.1432 69.8277 20.3411C72.341 18.5053 75.7234 17.5848 79.9748 17.5795C82.1724 17.5924 84.3616 17.8594 86.5002 18.3753C88.3746 18.7617 90.1786 19.4437 91.8469 20.3968L88.9979 26.1508C86.2375 24.5304 83.0971 23.7051 79.9124 23.7633C78.2041 23.659 76.498 24.0014 74.9559 24.7581C74.4613 24.9932 74.0408 25.3643 73.7415 25.8296C73.4423 26.295 73.2763 26.8361 73.2621 27.3924C73.25 27.9631 73.4201 28.5223 73.7467 28.9859C74.0733 29.4495 74.5387 29.7924 75.073 29.963C76.8918 30.6295 78.7721 31.1067 80.6851 31.3876C82.7971 31.6958 84.8841 32.1613 86.9295 32.7803C88.523 33.2892 89.963 34.2041 91.1132 35.4385C92.3553 36.9156 92.9826 38.8289 92.8616 40.7707C92.8834 42.2161 92.5401 43.643 91.8648 44.9141C91.1895 46.1852 90.205 47.2578 89.0057 48.0289C86.4716 49.8382 82.9903 50.7428 78.562 50.7428C76.0138 50.7388 73.4777 50.3855 71.0219 49.6922Z" fill="white"/>
<path d="M115.302 48.5462C114.364 49.3059 113.283 49.8612 112.126 50.1778C110.844 50.5492 109.517 50.7341 108.184 50.7269C104.695 50.7269 102.01 49.7957 100.105 47.9414C98.2006 46.0871 97.2562 43.3811 97.2562 39.8316V24.2726H92.0343V18.2241H97.2562V10.8386H104.679V18.2241H113.171V24.2726H104.679V39.6486C104.591 40.9498 104.993 42.2362 105.803 43.2458C106.231 43.6772 106.744 44.011 107.308 44.225C107.871 44.439 108.473 44.5285 109.074 44.4874C110.566 44.5413 112.032 44.0722 113.226 43.1583L115.302 48.5462Z" fill="white"/>
<path d="M147.156 36.5606H122.249C122.619 38.828 123.843 40.8584 125.66 42.2192C127.662 43.6608 130.072 44.3933 132.521 44.3043C134.112 44.3536 135.696 44.0672 137.173 43.4633C138.651 42.8594 139.99 41.9508 141.107 40.7946L145.08 45.4583C143.634 47.2126 141.776 48.5651 139.679 49.3898C137.006 50.3907 134.163 50.8359 131.318 50.6992C128.474 50.5626 125.685 49.8467 123.116 48.594C120.554 47.2723 118.421 45.2246 116.973 42.6967C115.508 40.0927 114.759 37.1346 114.803 34.1333C114.759 31.1578 115.486 28.2232 116.91 25.6256C118.28 23.1385 120.309 21.0948 122.764 19.7283C125.344 18.2888 128.246 17.5567 131.186 17.6033C134.087 17.5518 136.951 18.2762 139.491 19.7044C141.901 21.068 143.878 23.106 145.189 25.5778C146.599 28.2679 147.306 31.2828 147.242 34.3322C147.242 34.8257 147.203 35.6215 147.156 36.5606ZM125.223 25.8166C123.562 27.2794 122.491 29.3181 122.218 31.5388H140.17C139.927 29.317 138.868 27.2715 137.206 25.8141C135.543 24.3567 133.401 23.5955 131.21 23.6837C129.015 23.616 126.872 24.3753 125.192 25.8166H125.223Z" fill="white"/>
<path d="M179.003 21.1847C181.412 23.567 182.619 27.0979 182.624 31.7776V50.2971H175.201V32.7485C175.201 29.9206 174.548 27.7983 173.242 26.3817C172.514 25.6417 171.64 25.0675 170.678 24.6971C169.716 24.3267 168.688 24.1685 167.661 24.2329C166.471 24.171 165.28 24.3627 164.166 24.7957C163.052 25.2287 162.039 25.8935 161.191 26.7478C159.63 28.427 158.849 30.8305 158.849 33.9821V50.321H151.426V17.9774H158.49V22.1557C159.731 20.6491 161.322 19.4836 163.119 18.7653C165.126 17.9713 167.265 17.5794 169.418 17.6113C173.393 17.6113 176.588 18.8025 179.003 21.1847Z" fill="white"/>
<path d="M208.203 48.5462C207.265 49.3059 206.183 49.8612 205.026 50.1777C203.757 50.5455 202.443 50.7304 201.123 50.7269C197.634 50.7269 194.949 49.7957 193.045 47.9414C191.14 46.0871 190.196 43.3811 190.196 39.8316V24.2726H184.935V18.2241H190.157V10.8386H197.58V18.2241H206.072V24.2726H197.58V39.6486C197.492 40.9498 197.894 42.2362 198.704 43.2458C199.131 43.6772 199.644 44.011 200.208 44.225C200.772 44.439 201.374 44.5285 201.974 44.4874C203.467 44.5413 204.932 44.0722 206.127 43.1583L208.203 48.5462Z" fill="white"/>
<path d="M312 2.87208L294.851 61.5585L288.763 59.7121L274.791 25.5619L261.186 71.6659L253.849 69.4454L271.263 10.2337L277.352 12.0722L291.323 46.2223L304.655 0.651642L312 2.87208Z" fill="white"/>
<path d="M262.17 29.589C262.228 33.6221 261.189 37.5928 259.169 41.061C257.15 44.5293 254.228 47.3597 250.727 49.2386C247.467 51.0145 243.852 52.0055 240.159 52.1355L255.582 13.5206C256.951 14.8513 258.137 16.3637 259.11 18.0172C261.165 21.5095 262.225 25.5167 262.17 29.589Z" fill="white"/>
<path d="M253.568 11.7936L215.368 27.663C215.592 24.2557 216.609 20.9518 218.334 18.0252C220.346 14.5995 223.243 11.8047 226.71 9.94723C230.43 8.01692 234.544 7.01071 238.718 7.01071C242.892 7.01071 247.007 8.01692 250.727 9.94723C251.719 10.4904 252.669 11.1103 253.568 11.8016" fill="white"/>
</svg>
